<!--?xml version="1.0" encoding="UTF-8"?-->
<svg xmlns="http://www.w3.org/2000/svg" viewBox="0 0 98 96" width="24" height="24" fill="white" aria-hidden="true">
  <path d="M49 0C21.9 0 0 22.4 0 50c0 22.1 14.3 40.9 34.2 47.5
  2.5.5 3.4-1.1 3.4-2.4 0-1.2-.1-5.1-.1-9.3
  -13.9 3.1-16.8-6.1-16.8-6.1
  -2.3-6-5.6-7.6-5.6-7.6
  -4.6-3.2.3-3.1.3-3.1
  5.1.4 7.8 5.3 7.8 5.3
  4.5 7.9 11.8 5.6 14.7 4.3
  .5-3.3 1.8-5.6 3.3-6.9
  -11.1-1.3-22.8-5.7-22.8-25.3
  0-5.6 2-10.2 5.3-13.8
  -.5-1.3-2.3-6.6.5-13.7
  0 0 4.3-1.4 14.1 5.3
  4.1-1.2 8.5-1.8 12.9-1.8
  4.4 0 8.8.6 12.9 1.8
  9.8-6.7 14.1-5.3 14.1-5.3
  2.8 7.1 1 12.4.5 13.7
  3.3 3.6 5.3 8.2 5.3 13.8
  0 19.7-11.7 24-22.9 25.3
  1.8 1.6 3.4 4.8 3.4 9.6
  0 6.9-.1 12.5-.1 14.2
  0 1.3.9 2.9 3.4 2.4
  C83.7 90.9 98 72.1 98 50
  98 22.4 76.1 0 49 0z"></path>
</svg>
