<!--?xml version="1.0" encoding="UTF-8"?-->
<svg xmlns="http://www.w3.org/2000/svg" viewBox="0 0 24 24" width="24" height="24" fill="white" aria-hidden="true">
  <path d="M22.23 0H1.77C.79 0 0 .77 0 1.72v20.56C0 23.23.79 24 1.77 24h20.46
  c.98 0 1.77-.77 1.77-1.72V1.72C24 .77 23.21 0 22.23 0zM7.06 20.45H3.56V9h3.5v11.45z
  M5.31 7.43c-1.12 0-2.03-.9-2.03-2.01 0-1.11.91-2.01 2.03-2.01s2.03.9 2.03 2.01
  c0 1.11-.91 2.01-2.03 2.01zM20.45 20.45h-3.5v-5.57
  c0-1.33-.03-3.04-1.85-3.04-1.85 0-2.13 1.44-2.13 2.94v5.67h-3.5V9h3.36v1.56h.05
  c.47-.88 1.62-1.8 3.33-1.8 3.56 0 4.22 2.34 4.22 5.39v6.3z"></path>
</svg>
